<svg id="Capa_1" enable-background="new 0 0 512.001 512.001" height="512" viewBox="0 0 512.001 512.001" width="512" xmlns="http://www.w3.org/2000/svg"><g><g><path d="m80.136 382.664c30.07-312.476 44.865-350.164 122.865-347.164 0 0 16-28 53-28s53 28 53 28c78-3 92.794 34.688 122.865 347.164 0 0-54.365 121.836-175.365 121.836s-176.365-121.836-176.365-121.836z" fill="#e9edf1"/><path d="m8.001 504.5c36-300 67.399-460 191.199-428.5h113.601c123.801-31.5 155.199 128.5 191.199 428.5z" fill="#e9edf1"/><path d="m80.136 382.664c15.66-162.737 27.179-250.937 45.639-297.68 20.187-13.188 44.237-16.411 73.425-8.984h113.601c29.188-7.427 53.238-4.204 73.425 8.984 18.46 46.743 29.978 134.943 45.639 297.68 0 0-54.365 121.836-175.365 121.836s-176.364-121.836-176.364-121.836z" fill="#c8d2dc"/><path d="m104.26 504.5c0-77 17.575-97 68.77-118 15.307-6.279 22.852-13.396 29.25-25.581 4.573-8.71 102.868-8.71 107.441 0 6.398 12.185 18.247 19.302 38.279 25.581 67 21 90 41 90 118z" fill="#ffcdbe"/><path d="m164.001 386.5c34.352-10.767 44.64-24 44.64-61.023 0 37.023-.534 64.023-29.64 84.523-34.884 24.569-45 44-45 94.5h-60c0-77 23-97 90-118z" fill="#ebae9d"/><path d="m309.734 360.913c-15.624 11.32-34.028 17.857-53.733 17.857s-38.109-6.537-53.733-17.857c4.575-8.71 6.373-20.001 6.373-35.436h94.719c0 15.435 1.799 26.725 6.374 35.436z" fill="#ebae9d"/><path d="m136.001 504.5s0-7.222 0-11c0-31.48 25.52-57 57-57 22.555 0 49.521 17.894 63 27.5 13.479-9.606 40.445-27.5 63-27.5 31.48 0 57 25.52 57 57v11" fill="#e9edf1"/><path d="m243.922 458.5c5.025 0 9.455 2.541 12.079 6.407 2.624-3.867 7.054-6.407 12.079-6.407 8.056 0 14.587 6.531 14.587 14.587 0 12.871-9.509 17.475-26.666 31.413-17.157-13.938-26.666-18.542-26.666-31.413 0-8.056 6.531-14.587 14.587-14.587z" fill="#8aaadc"/><path d="m153.572 197c0-6.904-5.596-12.5-12.5-12.5s-12.5 5.596-12.5 12.5 0 10.495 0 21.765 4.928 20.406 25 20.406 0-42.171 0-42.171z" fill="#ebae9d"/><path d="m358.429 197c0-6.904 5.596-12.5 12.5-12.5s12.5 5.596 12.5 12.5 0 10.495 0 21.765-4.928 20.406-25 20.406 0-42.171 0-42.171z" fill="#ebae9d"/><path d="m173.501 171c0-56.609 25.891-102.5 82.5-102.5s102.5 45.891 102.5 102.5v47.377c0 66.492-45.891 120.393-102.5 120.393s-82.5-53.902-82.5-120.393c0-12.946 0-36.355 0-47.377z" fill="#ffcdbe"/><path d="m256.001 58.5c-34.518 0-62.5 45.891-62.5 102.5v57.377c0 66.492 27.982 120.393 62.5 120.393-56.609 0-102.5-53.902-102.5-120.393 0-12.946 0-46.355 0-57.377 0-56.609 45.89-102.5 102.5-102.5z" fill="#ebae9d"/><circle cx="326.501" cy="262.5" fill="#e6989e" r="21.5"/><circle cx="185.501" cy="262.5" fill="#e6989e" r="21.5"/><path d="m330.699 149.277c-16.184-13.547-35.632-26.777-35.632-51.317 0 48.96-46.778 63.236-82.842 76.058s-58.652 18.976-58.652 48.65c-.042-1.425-.072-2.854-.072-4.291 0-12.946 0-46.355 0-57.377 0-56.609 45.891-102.5 102.5-102.5s102.5 45.891 102.5 102.5v57.377c0-29.675-11.618-55.553-27.802-69.1z" fill="#be694e"/><path d="m256.001 58.5c-34.518 0-62.5 45.891-62.5 102.5v19.696c-24.983 9.26-39.928 17.836-39.928 41.971v-.001c-.042-1.424-.072-2.853-.072-4.29 0-12.946 0-46.355 0-57.377 0-56.608 45.89-102.499 102.5-102.499z" fill="#934c35"/></g><path d="m7.107 511.947c-4.113-.494-7.046-4.228-6.553-8.34 13.988-116.569 26.893-208.61 44.406-278.915 19.09-76.635 42.842-122.619 74.725-144.656 17.948-43.576 43.176-52.855 79.421-52.152 6.329-8.516 24.307-27.884 56.894-27.884s50.566 19.368 56.895 27.884c35.382-.669 61.072 8.347 78.947 50.993.162.386.322.772.483 1.164 31.88 22.039 55.628 68.02 74.716 144.65 17.513 70.305 30.418 162.346 44.406 278.915.493 4.113-2.44 7.847-6.553 8.34-4.108.492-7.846-2.441-8.34-6.553-13.921-116.01-26.743-207.525-44.068-277.076-14.121-56.688-30.468-95.427-50.539-119.179 11.141 41.249 20.457 105.589 31.612 214.518.422 4.121-2.576 7.803-6.697 8.225-4.115.421-7.803-2.576-8.225-6.697-11.525-112.532-22.106-191.794-38.513-235.189-14.323-8.716-30.647-11.94-49.492-9.736 21.74 20.11 35.368 48.863 35.368 80.741v16.614c1.577-.401 3.228-.614 4.928-.614 11.028 0 20 8.972 20 20v21.765c0 11.163-4.335 24.205-23.511 27.249 1.666 3.479 4.701 5.759 8.587 8.679 6.751 5.07 15.996 12.014 15.996 27.807s-9.245 22.737-15.996 27.808c-6.024 4.525-10.004 7.515-10.004 15.814 0 4.142-3.358 7.5-7.5 7.5s-7.5-3.358-7.5-7.5c0-15.793 9.245-22.737 15.996-27.808 6.024-4.525 10.004-7.515 10.004-15.814s-3.98-11.289-10.004-15.815c-2.262-1.699-4.804-3.608-7.184-5.99-8.778 29.026-26.319 53.29-48.918 68.482.586 30.476 8.895 40.62 39.349 50.166 32.783 10.275 57.859 21.079 73.685 40.405 15.121 18.466 21.572 43.812 21.572 84.752 0 4.142-3.358 7.5-7.5 7.5s-7.5-3.358-7.5-7.5c0-72.658-20.121-90.589-84.743-110.843-33.761-10.582-47.032-24.938-49.47-56.268-12.481 5.731-26.075 8.882-40.287 8.882s-27.805-3.151-40.287-8.882c-2.438 31.33-15.709 45.686-49.47 56.268-15.77 4.943-27.54 9.37-37.038 13.93-3.734 1.791-8.214.219-10.007-3.515s-.219-8.214 3.515-10.007c10.163-4.879 22.569-9.557 39.044-14.721 30.454-9.545 38.763-19.69 39.349-50.166-22.599-15.192-40.139-39.456-48.917-68.482-2.38 2.382-4.922 4.291-7.184 5.99-6.025 4.525-10.005 7.515-10.005 15.814s3.98 11.289 10.004 15.815c6.751 5.07 15.996 12.015 15.996 27.807 0 4.142-3.358 7.5-7.5 7.5s-7.5-3.358-7.5-7.5c0-8.299-3.98-11.289-10.004-15.815-6.75-5.07-15.996-12.014-15.996-27.807s9.245-22.737 15.996-27.808c3.887-2.919 6.922-5.2 8.587-8.679-19.176-3.044-23.511-16.086-23.511-27.249v-21.764c0-11.028 8.972-20 20-20 1.7 0 3.351.213 4.928.614v-16.614c0-12.982 2.242-25.694 6.662-37.782 1.423-3.89 5.73-5.889 9.62-4.468 3.89 1.423 5.89 5.73 4.468 9.62-3.815 10.432-5.75 21.411-5.75 32.63v27.919c.713-.588 1.452-1.165 2.218-1.73 5.908-4.357 13.027-7.794 21.38-11.118 2.679-1.367 5.635-2.472 8.756-3.312 3.275-1.19 6.707-2.4 10.299-3.666 1.974-.696 3.994-1.408 6.058-2.141 1.573-.56 3.166-1.121 4.774-1.689 34.255-12.082 73.08-25.777 73.08-67.303 0-4.142 3.358-7.5 7.5-7.5s7.5 3.358 7.5 7.5c0 18.561 13.604 29.7 28.008 41.493 1.664 1.362 3.317 2.716 4.939 4.073 5.915 4.951 11.125 11.181 15.488 18.344v-.87c0-32.228-16.131-60.759-40.744-77.944-1.151-.417-2.191-1.111-3.018-2.023-14.792-9.512-32.381-15.033-51.238-15.033-18.375 0-36.038 5.261-51.129 14.91-.882 1.018-2.024 1.779-3.294 2.205-6.905 4.832-13.21 10.618-18.728 17.267-2.646 3.188-7.373 3.628-10.561.983s-3.628-7.373-.983-10.561c3.119-3.759 6.458-7.282 9.988-10.553-18.813-2.183-35.117 1.042-49.422 9.748-.408 1.078-.813 2.18-1.216 3.306-17.412 48.678-28.565 139.503-43.055 290.078-.397 4.124-4.063 7.149-8.184 6.747-4.123-.396-7.144-4.061-6.747-8.184 12.776-132.761 23.033-219.595 37.409-272.838-20.084 23.749-36.437 62.495-50.564 119.209-17.324 69.552-30.146 161.066-44.067 277.077-.457 3.81-3.694 6.607-7.437 6.607-.298 0-.6-.018-.903-.054zm318.778-356.919c-1.58-1.322-3.192-2.642-4.813-3.969-8.599-7.041-17.826-14.596-24.415-24.204-4.741 10.369-12.358 19.385-22.94 27.216-12.493 9.247-27.596 15.639-42.14 21.003.909.398 1.793.824 2.647 1.278 3.658 1.943 5.049 6.483 3.106 10.142s-6.485 5.05-10.142 3.107c-7.665-4.07-19.471-4.952-28.93-2.644-26.291 9.65-37.186 16.301-37.186 35.712 0 .035 0 .069-.001.104 1.948 60.222 43.783 108.497 94.929 108.497 52.383 0 95-50.644 95-112.893 0-26.107-9.623-50.381-25.115-63.349zm-179.885 41.125c-.403-2.355-2.46-4.153-4.928-4.153-2.757 0-5 2.243-5 5v21.765c0 5.535.886 10.609 9.928 12.307v-12.695zm220 0v34.918c9.042-1.697 9.928-6.771 9.928-12.307v-21.764c0-2.757-2.243-5-5-5-2.468 0-4.524 1.798-4.928 4.153zm-168.563-128.295c17.332-10.915 37.543-16.858 58.563-16.858 21.479 0 41.538 6.187 58.492 16.874 20.617-4.737 38.969-4.428 55.486.987-14.32-22.865-32.749-26.946-60.69-25.866-2.773.099-5.384-1.353-6.781-3.741-.579-.991-14.556-24.254-46.507-24.254s-45.928 23.263-46.488 24.221c-1.386 2.426-4.013 3.873-6.8 3.773-28.124-1.081-46.462 3.024-60.723 25.877 8.796-2.887 18.112-4.327 28.014-4.327 8.681.001 17.812 1.107 27.434 3.314zm53.834 442.463c-2.991-2.43-5.811-4.622-8.298-6.555-12.272-9.539-21.139-16.43-21.139-30.68 0-6.804 3.092-12.899 7.945-16.954-14.519-8.062-26.836-12.132-36.779-12.132-27.294 0-49.5 22.206-49.5 49.5v11c0 4.142-3.358 7.5-7.5 7.5s-7.5-3.358-7.5-7.5v-11c0-35.565 28.935-64.5 64.5-64.5 16.552 0 36.465 7.957 60.708 24.285.789.39 1.555.827 2.292 1.309.738-.482 1.503-.919 2.293-1.309 24.243-16.328 44.156-24.285 60.707-24.285 35.565 0 64.5 28.935 64.5 64.5v11c0 4.142-3.358 7.5-7.5 7.5s-7.5-3.358-7.5-7.5v-11c0-27.294-22.206-49.5-49.5-49.5-9.943 0-22.259 4.07-36.78 12.133 4.853 4.055 7.945 10.15 7.945 16.954 0 14.249-8.867 21.141-21.139 30.68-2.487 1.933-5.307 4.125-8.298 6.555-1.376 1.118-3.052 1.678-4.728 1.678-1.675 0-3.351-.56-4.729-1.679zm14.345-43.879c-.949.646-1.905 1.304-2.869 1.977-.193.22-.374.454-.54.7-1.396 2.057-3.72 3.288-6.206 3.288s-4.81-1.232-6.206-3.288c-.167-.246-.348-.48-.54-.7-.964-.673-1.92-1.332-2.869-1.977-.777-.289-1.61-.442-2.463-.442-3.908 0-7.087 3.179-7.087 7.087 0 6.596 3.687 9.776 15.344 18.836 1.202.934 2.48 1.927 3.822 2.982 1.342-1.055 2.62-2.048 3.822-2.982 11.656-9.06 15.344-12.241 15.344-18.836 0-3.908-3.179-7.087-7.087-7.087-.855 0-1.687.153-2.465.442zm-199.116 38.058c0-43.682 7.562-70.287 25.285-88.96 2.852-3.004 7.598-3.129 10.603-.277 3.004 2.852 3.128 7.599.277 10.603-15.033 15.839-21.165 38.62-21.165 78.634 0 4.142-3.358 7.5-7.5 7.5s-7.5-3.358-7.5-7.5zm357.9-121.117c-.768-7.979-1.526-15.779-2.275-23.403-.405-4.123 2.608-7.792 6.73-8.197 4.127-.416 7.793 2.608 8.197 6.73.75 7.634 1.509 15.444 2.278 23.433.397 4.123-2.624 7.788-6.747 8.184-.245.024-.487.035-.728.035-3.817 0-7.082-2.904-7.455-6.782zm-200.99-92.976c-2.753-3.095-2.476-7.836.62-10.588 3.095-2.753 7.836-2.475 10.588.62 5.766 6.482 13.359 10.053 21.383 10.053 8.023 0 15.617-3.57 21.383-10.053 2.753-3.094 7.492-3.373 10.588-.62 3.095 2.752 3.372 7.493.62 10.588-8.651 9.727-20.226 15.084-32.591 15.084-12.366 0-23.94-5.357-32.591-15.084zm-31.713-63.86c-2.929-2.929-2.929-7.678 0-10.606 2.929-2.929 7.678-2.929 10.606 0 2.917 2.917 6.795 4.523 10.921 4.523 4.125 0 8.003-1.607 10.92-4.523 2.929-2.929 7.678-2.928 10.606-.001 2.929 2.929 2.929 7.678 0 10.607-5.75 5.751-13.395 8.917-21.527 8.917-8.13 0-15.776-3.166-21.526-8.917zm85.552 0c-2.929-2.929-2.929-7.678 0-10.607s7.678-2.928 10.607.001c2.917 2.917 6.795 4.523 10.92 4.523s8.004-1.607 10.921-4.523c2.929-2.929 7.678-2.929 10.606 0 2.929 2.929 2.929 7.678 0 10.606-5.75 5.751-13.396 8.917-21.527 8.917s-15.777-3.166-21.527-8.917zm43.659-36.946c-9.783-5.196-26.313-5.196-36.096 0-3.66 1.943-8.199.552-10.142-3.107-1.943-3.658-.552-8.199 3.107-10.142 14.065-7.469 36.101-7.47 50.166 0 3.658 1.943 5.049 6.483 3.106 10.142-1.348 2.538-3.945 3.984-6.63 3.984-1.186 0-2.39-.282-3.511-.877z"/></g></svg>