<svg id="Capa_1" enable-background="new 0 0 511.021 511.021" height="512" viewBox="0 0 511.021 511.021" width="512" xmlns="http://www.w3.org/2000/svg"><g><g><path d="m488.996 503.5c0-45.603-18.886-118.591-28.701-129.362-6.757-7.415-60.373-17.076-92.107-25.638-7.185-1.939-13.689-4.314-19.525-6.905-26.579-11.802-159.725-11.802-186.304 0-5.836 2.592-12.34 4.967-19.525 6.905-31.734 8.563-85.35 18.223-92.107 25.638-9.815 10.771-18.701 83.758-18.701 129.362z" fill="#766d78"/><path d="m76.511 503.5h-54.485c0-45.603 18.886-118.591 28.701-129.362 0 0-1.458 76.862 25.784 129.362z" fill="#544f56"/><path d="m201.659 325.122s-2.253 20.378-2.253 36.378c0 105 56.105 142 56.105 142s56.105-37 56.105-142c0-16-2.253-36.378-2.253-36.378z" fill="#c8d2dc"/><path d="m309.363 325.122c0 69.878-41.852 69.878-41.852 69.878h-24s-41.852 0-41.852-69.878 0-138.158 0-138.158h107.704z" fill="#f7f9fa"/><path d="m255.511 341.5s36.01 21 11.616 54c10.454 28 17.185 62.463 17.185 62.464 0 0-10.521 45.536-28.801 45.536s-28.801-45.536-28.801-45.536 6.731-34.464 17.185-62.464c-24.394-33 11.616-54 11.616-54z" fill="#8aaadc"/><path d="m304.299 503.5s60.404-51 60.404-90c0-23.731-16.037-71.907-16.037-71.907v-.006c-26.573-11.802-39.303-28.088-39.303-28.088v28c0 105-53.852 162-53.852 162s-53.852-57-53.852-162c0-7.674 0-18.649 0-28 0 0-12.729 16.286-39.303 28.088v.005s-16.037 48.176-16.037 71.907c0 39 60.404 90 60.404 90h97.576z" fill="#544f56"/><path d="m358.011 156c0-6.904 5.596-12.5 12.5-12.5s12.5 5.596 12.5 12.5 0 20.495 0 31.765-9.136 20.406-20.406 20.406c-1.691 0-4.01-.206-5.823-.594h-202.542c-1.812.388-4.131.594-5.823.594-11.27 0-20.406-9.136-20.406-20.406s0-24.861 0-31.765 5.596-12.5 12.5-12.5 12.5 5.596 12.5 12.5z" fill="#ebae9d"/><path d="m173.011 83.655c0-37.089 25.891-66.155 82.5-66.155 27.39 0 52.27-.855 70.658 12.787 19.616 14.553 31.842 44.224 31.842 63.368v94.721c0 66.492-45.891 129.393-102.5 129.393s-82.5-62.902-82.5-129.393c0-12.945 0-97.5 0-104.721z" fill="#ffcdbe"/><path d="m255.511 7.5c-15.729 0-62.5 43.551-62.5 76.155v104.721c0 66.492 5.891 129.393 62.5 129.393-56.609 0-102.5-62.902-102.5-129.393 0-12.946 0-87.5 0-94.721 0-37.089 45.891-86.155 102.5-86.155z" fill="#ebae9d"/><circle cx="326.011" cy="221.5" fill="#e6989e" r="21.5"/><circle cx="185.011" cy="221.5" fill="#e6989e" r="21.5"/><path d="m255.511 7.5c56.609 0 102.5 39.066 102.5 76.155v72.845c0-28.932-15.648-48.04-27-57-4.295-3.39-5-6.668-5-11 0-7 0-58 0-58 0 64-67.223 51.969-94.589 44.436-13.347-3.674-25.155-6.531-35.509-7.687-19.055-2.129 2.989-59.749 59.598-59.749z" fill="#be694e"/><path d="m255.511 7.5c-27 11.5-50.257 32.847-59.598 59.756-3.833-.428-7.463-.618-10.902-.535v21.78c0 4.332-.705 7.61-5 11-11.352 8.96-27 28.068-27 57 0-29.357 0-68.062 0-72.845 0-37.09 45.891-76.156 102.5-76.156z" fill="#934c35"/></g><path d="m260.1 398.124c-.887-2.377-.513-5.042.995-7.082 5.786-7.827 8.001-15.351 6.585-22.362-1.677-8.305-8.006-14.615-12.169-17.978-4.17 3.369-10.494 9.678-12.171 17.978-1.416 7.012.799 14.536 6.585 22.363 1.508 2.04 1.883 4.705.995 7.082-8.553 22.908-14.65 50.679-16.363 58.889.156.322.313.644.467.961 7.709 15.787 15.484 27.144 20.484 33.716 5.081-6.694 13.04-18.37 20.939-34.755-1.733-8.301-7.81-35.949-16.347-58.812zm-31.434-32.553c3.957-19.211 22.288-30.096 23.066-30.549 2.336-1.362 5.222-1.362 7.557-.001.778.454 19.109 11.338 23.067 30.55 2.114 10.265-.191 20.677-6.855 31.002 4.448 12.492 8.142 25.753 10.873 36.622 8.681-24.232 15.489-54.948 15.489-91.696v-27.923c0-.048 0-.096 0-.145v-1.548c-14.425 8.768-30.163 13.386-46.352 13.386s-31.928-4.619-46.352-13.386v1.554.135 27.928c0 37.345 7.122 68.281 15.481 91.726 2.732-10.876 6.429-24.148 10.881-36.652-6.664-10.325-8.97-20.738-6.855-31.003zm97.698-260.184c-6.92-5.462-7.854-11.602-7.854-16.887v-15.683c-1.422 1.412-2.945 2.738-4.567 3.974-24.023 18.305-63.262 11.225-84.512 5.376-14.83-4.082-26.954-6.858-36.921-7.676v14.009c0 5.286-.933 11.426-7.854 16.887-5.664 4.471-24.146 21.369-24.146 51.113v31.876c0 30.613 10.373 61.612 28.459 85.049 18.335 23.759 41.966 36.844 66.541 36.844s48.206-13.085 66.541-36.844c18.086-23.438 28.459-54.437 28.459-85.049v-31.876c0-29.744-18.481-46.642-24.146-51.113zm-185.854 45.613c-2.757 0-5 2.243-5 5v31.765c0 6.288 4.52 11.541 10.481 12.678-.319-4.019-.481-8.046-.481-12.066v-32.377c0-2.757-2.243-5-5-5zm225 5v32.376c0 4.02-.162 8.048-.482 12.066 5.962-1.137 10.482-6.39 10.482-12.678v-31.764c0-2.757-2.243-5-5-5s-5 2.243-5 5zm-205-70.002v23.425c5.828-8.157 11.824-13.419 14.854-15.811 1.865-1.472 2.146-2.141 2.146-5.112v-13.388c-7.084 1.488-12.607 4.947-17 10.886zm173 2.502c0 2.971.281 3.64 2.147 5.113 3.03 2.391 9.025 7.654 14.853 15.811v-25.769c0-12.311-6.241-25.398-17-36.808zm147.985 415c0-20.02-3.816-47.73-10.471-76.026-6.943-29.521-13.552-45.1-16.181-48.179-.563-.433-3.364-2.21-14.637-5.471-3.979-1.151-6.272-5.31-5.12-9.289 1.151-3.979 5.31-6.269 9.289-5.12 12.202 3.53 18.419 6.333 21.462 9.672 11.828 12.979 30.657 88.665 30.657 134.413 0 4.142-3.358 7.5-7.5 7.5s-7.499-3.358-7.499-7.5zm-265.528-245.712c-2.753-3.095-2.475-7.835.62-10.588 3.096-2.753 7.835-2.475 10.589.62 7.622 8.57 17.686 13.291 28.335 13.291s20.711-4.72 28.334-13.291c2.753-3.095 7.493-3.372 10.588-.62s3.372 7.493.62 10.588c-10.508 11.815-24.551 18.322-39.542 18.322-.001 0 0 0-.001 0-14.99 0-29.035-6.507-39.543-18.322zm-24.76-72.241c-2.929-2.929-2.929-7.678.001-10.607 2.928-2.928 7.677-2.929 10.606.001 2.917 2.917 6.795 4.523 10.92 4.523s8.004-1.607 10.922-4.524c2.927-2.928 7.676-2.929 10.606.001 2.929 2.929 2.929 7.678-.001 10.606-5.75 5.751-13.395 8.917-21.527 8.917s-15.777-3.166-21.527-8.917zm85.552 0c-2.929-2.929-2.929-7.678 0-10.607s7.678-2.928 10.607.001c2.917 2.917 6.795 4.523 10.92 4.523s8.004-1.607 10.921-4.523c2.929-2.929 7.678-2.929 10.606 0 2.929 2.929 2.929 7.678 0 10.606-5.75 5.751-13.396 8.917-21.527 8.917-8.132 0-15.777-3.166-21.527-8.917zm43.659-29.946c-9.784-5.196-26.313-5.196-36.096 0-3.66 1.943-8.199.552-10.142-3.107-1.943-3.658-.552-8.199 3.107-10.142 14.065-7.469 36.101-7.47 50.166 0 3.658 1.943 5.049 6.483 3.106 10.142-1.348 2.538-3.945 3.984-6.63 3.984-1.186 0-2.39-.282-3.511-.877zm-139.956-3.107c-1.942-3.658-.552-8.199 3.106-10.142 14.064-7.47 36.102-7.47 50.166 0 3.658 1.943 5.049 6.483 3.106 10.142-1.942 3.658-6.48 5.049-10.142 3.107-9.783-5.195-26.313-5.195-36.096 0-1.121.595-2.324.877-3.511.877-2.684 0-5.282-1.447-6.629-3.984zm26.257 358.506c-1.709 0-3.427-.581-4.834-1.77-1.171-.988-28.879-24.527-47.148-52.416-2.27-3.465-1.301-8.114 2.164-10.384 3.464-2.27 8.112-1.301 10.384 2.164 17.082 26.078 44.007 48.947 44.277 49.175 3.165 2.672 3.564 7.404.892 10.569-1.484 1.757-3.603 2.662-5.735 2.662zm220.38-48.467c0 17.474-10.621 25.729-26.698 38.226-3.255 2.53-6.944 5.397-10.866 8.583-1.378 1.12-3.054 1.679-4.729 1.679s-3.352-.56-4.729-1.679c-3.921-3.186-7.609-6.053-10.864-8.582-12.376-9.62-21.52-16.726-25.074-27.459l.008-.045c-16.2 19.957-33.65 34.828-35.008 35.974-3.165 2.671-7.894 2.273-10.567-.891-2.672-3.164-2.274-7.895.889-10.568 16.061-13.577 57.744-55.181 57.744-84.271 0-18.911-11.207-55.607-14.656-66.452-10.868-5.144-19.399-10.938-25.684-15.983v10.435c0 55.682-15.061 97.994-27.696 123.685-13.805 28.069-27.623 42.85-28.204 43.466-1.417 1.5-3.389 2.349-5.452 2.349s-4.035-.85-5.452-2.349c-.581-.616-14.4-15.396-28.204-43.466-12.635-25.691-27.696-68.003-27.696-123.685v-10.436c-6.284 5.046-14.816 10.84-25.684 15.984-3.043 9.565-12.123 39.256-14.229 59.272-.434 4.119-4.109 7.105-8.244 6.674-4.119-.434-7.107-4.124-6.674-8.244 1.681-15.971 7.237-36.859 11.316-50.723-1.902.6-3.854 1.172-5.857 1.712-10.149 2.738-22.627 5.615-34.694 8.397-19.591 4.517-49.149 11.332-53.913 15.152-2.626 3.068-9.238 18.647-16.184 48.183-6.654 28.295-10.471 56.005-10.471 76.026 0 4.142-3.357 7.5-7.5 7.5s-7.5-3.358-7.5-7.5c0-45.748 18.829-121.434 30.656-134.413 5.615-6.162 23.064-10.694 61.541-19.565 11.935-2.751 24.274-5.597 34.156-8.263 30.565-8.247 48.131-25.031 53.278-30.574v-9.836c-6.046-5.286-11.762-11.388-17.063-18.259-14.667-19.006-24.763-42.457-29.137-66.922-15.177-.246-27.447-12.668-27.447-27.902v-31.763c0-11.028 8.972-20 20-20 1.726 0 3.401.22 5 .633v-52.87c-.001-.081-.001-.161 0-.241.045-17.987 9.2-36.353 25.791-51.73 3.038-2.816 7.783-2.636 10.6.402 2.815 3.038 2.636 7.783-.402 10.599-6.76 6.265-12.059 13.182-15.642 20.25 5.475-2.316 11.458-3.454 17.867-3.716.71-.123 1.472-.143 2.19-.056 14.184-.156 30.302 3.701 47.497 8.434 14.956 4.116 51.854 12.079 71.44-2.845 8.5-6.477 12.961-16.579 13.583-30.813-16.611-11.367-38.518-19.047-62.924-19.047-16.111 0-32.289 3.451-46.785 9.979-3.775 1.7-8.218.02-9.919-3.758-1.7-3.777-.018-8.218 3.759-9.918 16.417-7.395 34.726-11.303 52.945-11.303 28.323 0 55.697 9.143 77.078 25.746 20.922 16.246 32.922 37.353 32.922 57.91v52.978c1.599-.413 3.274-.633 5-.633 11.028 0 20 8.972 20 20v31.765c0 15.234-12.27 27.657-27.447 27.902-4.374 24.465-14.47 47.916-29.137 66.922-5.303 6.873-11.016 12.972-17.064 18.259v9.857c3.948 4.29 15.294 15.31 34.57 23.917.183.073.363.153.54.239 5.432 2.395 11.485 4.594 18.168 6.397 9.887 2.668 22.234 5.514 34.174 8.267l5.718 1.32c4.036.934 6.55 4.962 5.617 8.998-.934 4.036-4.963 6.548-8.998 5.617l-5.707-1.317c-12.073-2.784-24.557-5.662-34.711-8.401-2.002-.541-3.955-1.113-5.858-1.713 4.864 16.537 11.827 43.074 11.827 59.472 0 7.334-1.849 14.96-4.907 22.563.579-.038 1.161-.063 1.749-.063 5.756 0 11.258 1.86 15.761 5.187 4.503-3.326 10.005-5.187 15.761-5.187 14.63-.002 26.532 11.901 26.532 26.531zm-58.055-11.533c-6.359 0-11.533 5.174-11.533 11.533 0 9.674 5.023 14.04 20.905 26.384 1.982 1.54 4.122 3.204 6.389 4.996 2.267-1.792 4.407-3.456 6.39-4.997 15.881-12.343 20.904-16.709 20.904-26.382 0-6.359-5.174-11.533-11.533-11.533-3.828 0-7.4 1.896-9.555 5.071-1.396 2.057-3.72 3.289-6.206 3.289s-4.81-1.232-6.206-3.289c-2.154-3.176-5.727-5.072-9.555-5.072z"/></g></svg>