<svg id="Capa_1" enable-background="new 0 0 512 512" height="512" viewBox="0 0 512 512" width="512" xmlns="http://www.w3.org/2000/svg"><g><path d="m249.02 61.482c0 20.81-17.69 45.27-66.16 75.62-48.47-30.35-66.16-54.81-66.16-75.62 0-20.85 16.9-37.75 37.75-37.75 11.33 0 21.49 5 28.41 12.9 6.92-7.9 17.08-12.9 28.4-12.9 20.85 0 37.76 16.901 37.76 37.75z" fill="#8cf2f2"/><path d="m249.02 61.482c0 20.81-17.69 45.27-66.16 75.62v-100.469c6.92-7.9 17.08-12.9 28.4-12.9 20.85-.001 37.76 16.9 37.76 37.749z" fill="#57d9d4"/><path d="m512 305.407c0 100.99-81.87 182.86-182.85 182.86h-.01c-26.02 0-50.75-5.43-73.14-15.23l-61.96-17.95-11.19-39.96c-22.96-30.56-36.57-68.55-36.57-109.72s13.61-79.16 36.57-109.72l46.15-2.96 27 30.91c-22.45 20.08-36.57 49.28-36.57 81.77 0 32.5 14.12 61.7 36.57 81.77l40.333 6.55 32.807 21.39.01.01c60.59 0 109.7-49.13 109.7-109.72s-49.11-109.72-109.7-109.72h-.01l-45.015-20.076-28.125-37.833c22.39-9.79 47.12-15.22 73.14-15.22h.01c100.98 0 182.85 81.859 182.85 182.849z" fill="#ffda2d"/><path d="m365.72 305.407c0 41.17-13.61 79.16-36.57 109.72-28.1 0-53.74-10.56-73.15-27.95 22.45-20.07 36.57-49.27 36.57-81.77 0-32.49-14.12-61.69-36.57-81.77-19.41-17.39-45.04-27.95-73.14-27.95h-.01c-60.59 0-109.7 49.13-109.7 109.72s49.11 109.72 109.7 109.72l.01.01c18.86 25.1 44.01 45.19 73.14 57.9-22.39 9.8-47.12 15.23-73.14 15.23h-.01c-100.98.001-182.85-81.869-182.85-182.86 0-100.99 81.87-182.85 182.85-182.85h.01c26.02 0 50.75 5.43 73.14 15.22 29.13 12.71 54.29 32.81 73.15 57.91 22.96 30.561 36.57 68.551 36.57 109.72z" fill="#ffda2d"/><g fill="#fcae00"><path d="m256 473.038c-22.39 9.8-47.12 15.23-73.14 15.23v-73.13c18.86 25.1 44.01 45.19 73.14 57.9z"/><path d="m365.72 305.407c0 41.17-13.61 79.16-36.57 109.72-28.1 0-53.74-10.56-73.15-27.95 22.45-20.07 36.57-49.27 36.57-81.77 0-32.49-14.12-61.69-36.57-81.77-19.41-17.39-45.04-27.95-73.14-27.95v-73.13c26.02 0 50.75 5.43 73.14 15.22 29.13 12.71 54.29 32.81 73.15 57.91 22.96 30.561 36.57 68.551 36.57 109.72z"/><path d="m512 305.407c0 100.99-81.87 182.86-182.85 182.86h-.01v-73.15l.01.01c60.59 0 109.7-49.13 109.7-109.72s-49.11-109.72-109.7-109.72h-.01v-73.13h.01c100.98.001 182.85 81.86 182.85 182.85z"/></g></g></svg>